# xmcd
#
# Track frame offsets: 
#        150
#        11370
#        22354
#        35639
#        49144
#        59392
#        72792
#        85789
#        97801
#        109586
#        120526
#        132491
#        144766
#        156716
#        167060
#        179470
#        192295
#        204650
#        218509
#        232834
#        253043
#        265373
#        277467
#
# Disc length: 3888 seconds
#
# Revision: 1
# Processed by: cddbd v1.5.2PL0 Copyright (c) Steve Scherf et al.
# Submitted via: ExactAudioCopyFreeDBPlugin 1.0
#
DISCID=520f2e17
DTITLE=Barbara Acklin - The Complete Barbara Acklin on Brunswick Recor
DTITLE=ds
DYEAR=2004
DGENRE=Soul
TTITLE0=What the World Needs Now is Love
TTITLE1=The Look of Love
TTITLE2=The Old Matchmaker
TTITLE3=Come and See Me Baby
TTITLE4=I've Got You Baby
TTITLE5=Love Makes a Woman
TTITLE6=Please Sunrise, Please
TTITLE7=Your Sweet Loving
TTITLE8=Yes I See the Love (I Missed)
TTITLE9=To Sir, With Love
TTITLE10=Be By My Side
TTITLE11=Fool, Fool, Fool (Look in the Mirror)
TTITLE12=A Raggedy Ride
TTITLE13=Go with Love
TTITLE14=Seven Days of Night
TTITLE15=Just Ain't No Love
TTITLE16=Where Would I Go
TTITLE17=Am I the Same Girl
TTITLE18=Until You Return
TTITLE19=This Girl's in Love with You
TTITLE20=Here is a Heart
TTITLE21=Mr. Sunshine (Where is My Shadow)
TTITLE22=Love Had Come to Stay
EXTD=#01-11Love makes a woman\r\n#12 bonus track\r\n#13-23 Seven days 
EXTD=of night
EXTT0=
EXTT1=
EXTT2=
EXTT3=
EXTT4=
EXTT5=
EXTT6=
EXTT7=
EXTT8=
EXTT9=
EXTT10=
EXTT11=
EXTT12=
EXTT13=
EXTT14=
EXTT15=
EXTT16=
EXTT17=
EXTT18=
EXTT19=
EXTT20=
EXTT21=
EXTT22=
PLAYORDER=
